<mxfile host="app.diagrams.net" agent="Mozilla/5.0 (Windows NT 10.0; Win64; x64) AppleWebKit/537.36 (KHTML, like Gecko) Chrome/130.0.0.0 Safari/537.36 Edg/130.0.0.0" version="24.8.4" pages="2">
  <diagram name="Page-1" id="5f0bae14-7c28-e335-631c-24af17079c00">
    <mxGraphModel grid="1" page="1" gridSize="10" guides="1" tooltips="1" connect="1" arrows="1" fold="1" pageScale="1" pageWidth="1100" pageHeight="850" background="none" math="0" shadow="0">
      <root>
        <mxCell id="0" />
        <mxCell id="1" parent="0" />
        <mxCell id="sHGMJRsQZEN2XZA7WR1m-72" value="&lt;p style=&quot;margin:0px;margin-top:6px;text-align:center;&quot;&gt;&amp;lt;&amp;lt;component&amp;gt;&amp;gt;&lt;/p&gt;&lt;p style=&quot;margin:0px;margin-top:6px;text-align:center;&quot;&gt;Printer Management&lt;/p&gt;" style="align=left;overflow=fill;html=1;dropTarget=0;whiteSpace=wrap;fontStyle=1" vertex="1" parent="1">
          <mxGeometry x="-390" y="225" width="470" height="525" as="geometry" />
        </mxCell>
        <mxCell id="sHGMJRsQZEN2XZA7WR1m-73" value="" style="shape=component;jettyWidth=8;jettyHeight=4;" vertex="1" parent="sHGMJRsQZEN2XZA7WR1m-72">
          <mxGeometry x="1" width="20" height="20" relative="1" as="geometry">
            <mxPoint x="-24" y="4" as="offset" />
          </mxGeometry>
        </mxCell>
        <mxCell id="sHGMJRsQZEN2XZA7WR1m-69" value="&lt;p style=&quot;margin:0px;margin-top:6px;text-align:center;&quot;&gt;&amp;lt;&amp;lt;component&amp;gt;&amp;gt;&lt;/p&gt;&lt;p style=&quot;margin:0px;margin-top:6px;text-align:center;&quot;&gt;Controller&lt;/p&gt;" style="align=left;overflow=fill;html=1;dropTarget=0;whiteSpace=wrap;fontStyle=1" vertex="1" parent="1">
          <mxGeometry x="200" y="225" width="560" height="525" as="geometry" />
        </mxCell>
        <mxCell id="sHGMJRsQZEN2XZA7WR1m-70" value="" style="shape=component;jettyWidth=8;jettyHeight=4;" vertex="1" parent="sHGMJRsQZEN2XZA7WR1m-69">
          <mxGeometry x="1" width="20" height="20" relative="1" as="geometry">
            <mxPoint x="-24" y="4" as="offset" />
          </mxGeometry>
        </mxCell>
        <mxCell id="sHGMJRsQZEN2XZA7WR1m-1" value="&lt;p style=&quot;margin:0px;margin-top:6px;text-align:center;&quot;&gt;&amp;lt;&amp;lt;component&amp;gt;&amp;gt;&lt;/p&gt;&lt;p style=&quot;margin:0px;margin-top:6px;text-align:center;&quot;&gt;Database&lt;/p&gt;" style="align=left;overflow=fill;html=1;dropTarget=0;whiteSpace=wrap;fontStyle=1" vertex="1" parent="1">
          <mxGeometry x="910" y="225" width="470" height="525" as="geometry" />
        </mxCell>
        <mxCell id="sHGMJRsQZEN2XZA7WR1m-2" value="" style="shape=component;jettyWidth=8;jettyHeight=4;" vertex="1" parent="sHGMJRsQZEN2XZA7WR1m-1">
          <mxGeometry x="1" width="20" height="20" relative="1" as="geometry">
            <mxPoint x="-24" y="4" as="offset" />
          </mxGeometry>
        </mxCell>
        <mxCell id="sHGMJRsQZEN2XZA7WR1m-5" value="&lt;p style=&quot;margin:0px;margin-top:6px;text-align:center;&quot;&gt;&amp;lt;&amp;lt;component&amp;gt;&amp;gt;&lt;/p&gt;&lt;p style=&quot;margin:0px;margin-top:6px;text-align:center;&quot;&gt;PrinterManagement&lt;/p&gt;" style="align=left;overflow=fill;html=1;dropTarget=0;whiteSpace=wrap;fontStyle=1" vertex="1" parent="1">
          <mxGeometry x="-220" y="425" width="150" height="50" as="geometry" />
        </mxCell>
        <mxCell id="sHGMJRsQZEN2XZA7WR1m-6" value="" style="shape=component;jettyWidth=8;jettyHeight=4;" vertex="1" parent="sHGMJRsQZEN2XZA7WR1m-5">
          <mxGeometry x="1" width="20" height="20" relative="1" as="geometry">
            <mxPoint x="-24" y="4" as="offset" />
          </mxGeometry>
        </mxCell>
        <mxCell id="sHGMJRsQZEN2XZA7WR1m-9" value="" style="ellipse;whiteSpace=wrap;html=1;align=center;aspect=fixed;fillColor=none;strokeColor=none;resizable=0;perimeter=centerPerimeter;rotatable=0;allowArrows=0;points=[];outlineConnect=1;" vertex="1" parent="1">
          <mxGeometry x="580" y="595" width="10" height="10" as="geometry" />
        </mxCell>
        <mxCell id="sHGMJRsQZEN2XZA7WR1m-10" value="&lt;p style=&quot;margin:0px;margin-top:6px;text-align:center;&quot;&gt;&amp;lt;&amp;lt;component&amp;gt;&amp;gt;&lt;/p&gt;&lt;p style=&quot;margin:0px;margin-top:6px;text-align:center;&quot;&gt;Add/Remove Printer&lt;/p&gt;" style="align=left;overflow=fill;html=1;dropTarget=0;whiteSpace=wrap;fontStyle=1" vertex="1" parent="1">
          <mxGeometry x="245" y="660" width="150" height="50" as="geometry" />
        </mxCell>
        <mxCell id="sHGMJRsQZEN2XZA7WR1m-11" value="" style="shape=component;jettyWidth=8;jettyHeight=4;" vertex="1" parent="sHGMJRsQZEN2XZA7WR1m-10">
          <mxGeometry x="1" width="20" height="20" relative="1" as="geometry">
            <mxPoint x="-24" y="4" as="offset" />
          </mxGeometry>
        </mxCell>
        <mxCell id="sHGMJRsQZEN2XZA7WR1m-12" value="manage" style="rounded=0;orthogonalLoop=1;jettySize=auto;html=1;endArrow=halfCircle;endFill=0;endSize=6;strokeWidth=1;sketch=0;fontSize=12;curved=1;exitX=1;exitY=0.5;exitDx=0;exitDy=0;" edge="1" parent="1" source="sHGMJRsQZEN2XZA7WR1m-5">
          <mxGeometry x="0.7778" y="20" relative="1" as="geometry">
            <mxPoint x="320" y="385" as="sourcePoint" />
            <mxPoint x="110" y="450" as="targetPoint" />
            <mxPoint as="offset" />
          </mxGeometry>
        </mxCell>
        <mxCell id="sHGMJRsQZEN2XZA7WR1m-13" value="" style="ellipse;whiteSpace=wrap;html=1;align=center;aspect=fixed;fillColor=none;strokeColor=none;resizable=0;perimeter=centerPerimeter;rotatable=0;allowArrows=0;points=[];outlineConnect=1;" vertex="1" parent="1">
          <mxGeometry x="630" y="320" width="10" height="10" as="geometry" />
        </mxCell>
        <mxCell id="sHGMJRsQZEN2XZA7WR1m-16" value="&lt;p style=&quot;margin: 6px 0px 0px;&quot;&gt;&amp;lt;&amp;lt;component&amp;gt;&amp;gt;&lt;/p&gt;&lt;p style=&quot;margin: 6px 0px 0px;&quot;&gt;User&lt;/p&gt;" style="align=center;overflow=fill;html=1;dropTarget=0;whiteSpace=wrap;fontStyle=1;verticalAlign=middle;" vertex="1" parent="1">
          <mxGeometry x="1200" y="280" width="150" height="50" as="geometry" />
        </mxCell>
        <mxCell id="sHGMJRsQZEN2XZA7WR1m-17" value="" style="shape=component;jettyWidth=8;jettyHeight=4;" vertex="1" parent="sHGMJRsQZEN2XZA7WR1m-16">
          <mxGeometry x="1" width="20" height="20" relative="1" as="geometry">
            <mxPoint x="-24" y="4" as="offset" />
          </mxGeometry>
        </mxCell>
        <mxCell id="sHGMJRsQZEN2XZA7WR1m-18" value="&lt;p style=&quot;margin: 6px 0px 0px;&quot;&gt;&amp;lt;&amp;lt;component&amp;gt;&amp;gt;&lt;/p&gt;&lt;p style=&quot;margin: 6px 0px 0px;&quot;&gt;Printer&lt;/p&gt;" style="align=center;overflow=fill;html=1;dropTarget=0;whiteSpace=wrap;fontStyle=1;verticalAlign=middle;" vertex="1" parent="1">
          <mxGeometry x="1200" y="510" width="150" height="50" as="geometry" />
        </mxCell>
        <mxCell id="sHGMJRsQZEN2XZA7WR1m-19" value="" style="shape=component;jettyWidth=8;jettyHeight=4;" vertex="1" parent="sHGMJRsQZEN2XZA7WR1m-18">
          <mxGeometry x="1" width="20" height="20" relative="1" as="geometry">
            <mxPoint x="-24" y="4" as="offset" />
          </mxGeometry>
        </mxCell>
        <mxCell id="sHGMJRsQZEN2XZA7WR1m-22" value="&lt;p style=&quot;margin: 6px 0px 0px;&quot;&gt;&amp;lt;&amp;lt;component&amp;gt;&amp;gt;&lt;/p&gt;&lt;p style=&quot;margin: 6px 0px 0px;&quot;&gt;Logs&lt;/p&gt;" style="align=center;overflow=fill;html=1;dropTarget=0;whiteSpace=wrap;fontStyle=1;verticalAlign=middle;" vertex="1" parent="1">
          <mxGeometry x="940" y="385" width="150" height="50" as="geometry" />
        </mxCell>
        <mxCell id="sHGMJRsQZEN2XZA7WR1m-23" value="" style="shape=component;jettyWidth=8;jettyHeight=4;" vertex="1" parent="sHGMJRsQZEN2XZA7WR1m-22">
          <mxGeometry x="1" width="20" height="20" relative="1" as="geometry">
            <mxPoint x="-24" y="4" as="offset" />
          </mxGeometry>
        </mxCell>
        <mxCell id="sHGMJRsQZEN2XZA7WR1m-26" value="" style="ellipse;whiteSpace=wrap;html=1;align=center;aspect=fixed;fillColor=none;strokeColor=none;resizable=0;perimeter=centerPerimeter;rotatable=0;allowArrows=0;points=[];outlineConnect=1;" vertex="1" parent="1">
          <mxGeometry x="610" y="299" width="10" height="10" as="geometry" />
        </mxCell>
        <mxCell id="sHGMJRsQZEN2XZA7WR1m-27" value="" style="rounded=0;orthogonalLoop=1;jettySize=auto;html=1;endArrow=halfCircle;endFill=0;endSize=6;strokeWidth=1;sketch=0;" edge="1" parent="1" source="sHGMJRsQZEN2XZA7WR1m-22">
          <mxGeometry relative="1" as="geometry">
            <mxPoint x="1130" y="390" as="sourcePoint" />
            <mxPoint x="1130" y="410" as="targetPoint" />
          </mxGeometry>
        </mxCell>
        <mxCell id="sHGMJRsQZEN2XZA7WR1m-28" value="user info" style="rounded=0;orthogonalLoop=1;jettySize=auto;html=1;endArrow=oval;endFill=0;sketch=0;sourcePerimeterSpacing=0;targetPerimeterSpacing=0;endSize=10;" edge="1" parent="1" source="sHGMJRsQZEN2XZA7WR1m-16" target="sHGMJRsQZEN2XZA7WR1m-29">
          <mxGeometry x="1" y="-16" relative="1" as="geometry">
            <mxPoint x="1290" y="300" as="sourcePoint" />
            <mxPoint x="-5" y="1" as="offset" />
          </mxGeometry>
        </mxCell>
        <mxCell id="sHGMJRsQZEN2XZA7WR1m-29" value="" style="ellipse;whiteSpace=wrap;html=1;align=center;aspect=fixed;fillColor=none;strokeColor=none;resizable=0;perimeter=centerPerimeter;rotatable=0;allowArrows=0;points=[];outlineConnect=1;" vertex="1" parent="1">
          <mxGeometry x="1160" y="300" width="10" height="10" as="geometry" />
        </mxCell>
        <mxCell id="sHGMJRsQZEN2XZA7WR1m-33" value="" style="ellipse;whiteSpace=wrap;html=1;align=center;aspect=fixed;fillColor=none;strokeColor=none;resizable=0;perimeter=centerPerimeter;rotatable=0;allowArrows=0;points=[];outlineConnect=1;" vertex="1" parent="1">
          <mxGeometry x="1085" y="370" width="10" height="10" as="geometry" />
        </mxCell>
        <mxCell id="sHGMJRsQZEN2XZA7WR1m-35" value="Use" style="endArrow=open;endSize=12;dashed=1;html=1;rounded=0;entryX=0.1;entryY=0.5;entryDx=0;entryDy=0;entryPerimeter=0;" edge="1" parent="1" target="sHGMJRsQZEN2XZA7WR1m-29">
          <mxGeometry width="160" relative="1" as="geometry">
            <mxPoint x="1130" y="410" as="sourcePoint" />
            <mxPoint x="1160" y="320" as="targetPoint" />
            <Array as="points">
              <mxPoint x="1130" y="305" />
            </Array>
          </mxGeometry>
        </mxCell>
        <mxCell id="sHGMJRsQZEN2XZA7WR1m-36" value="Use" style="endArrow=open;endSize=12;dashed=1;html=1;rounded=0;" edge="1" parent="1">
          <mxGeometry x="0.0031" width="160" relative="1" as="geometry">
            <mxPoint x="1130" y="410" as="sourcePoint" />
            <mxPoint x="1190" y="540" as="targetPoint" />
            <Array as="points">
              <mxPoint x="1130" y="540" />
            </Array>
            <mxPoint as="offset" />
          </mxGeometry>
        </mxCell>
        <mxCell id="sHGMJRsQZEN2XZA7WR1m-38" value="printer info" style="rounded=0;orthogonalLoop=1;jettySize=auto;html=1;endArrow=oval;endFill=0;sketch=0;sourcePerimeterSpacing=0;targetPerimeterSpacing=0;endSize=10;" edge="1" parent="1" source="sHGMJRsQZEN2XZA7WR1m-18">
          <mxGeometry x="1" y="-15" relative="1" as="geometry">
            <mxPoint x="1085" y="375" as="sourcePoint" />
            <mxPoint x="1185" y="535" as="targetPoint" />
            <mxPoint as="offset" />
          </mxGeometry>
        </mxCell>
        <mxCell id="sHGMJRsQZEN2XZA7WR1m-39" value="" style="ellipse;whiteSpace=wrap;html=1;align=center;aspect=fixed;fillColor=none;strokeColor=none;resizable=0;perimeter=centerPerimeter;rotatable=0;allowArrows=0;points=[];outlineConnect=1;" vertex="1" parent="1">
          <mxGeometry x="1085" y="370" width="10" height="10" as="geometry" />
        </mxCell>
        <mxCell id="sHGMJRsQZEN2XZA7WR1m-40" value="" style="rounded=0;orthogonalLoop=1;jettySize=auto;html=1;endArrow=halfCircle;endFill=0;endSize=6;strokeWidth=1;sketch=0;" edge="1" parent="1" source="sHGMJRsQZEN2XZA7WR1m-10">
          <mxGeometry relative="1" as="geometry">
            <mxPoint x="425" y="890" as="sourcePoint" />
            <mxPoint x="425" y="685" as="targetPoint" />
          </mxGeometry>
        </mxCell>
        <mxCell id="sHGMJRsQZEN2XZA7WR1m-41" value="" style="rounded=0;orthogonalLoop=1;jettySize=auto;html=1;endArrow=oval;endFill=0;sketch=0;sourcePerimeterSpacing=0;targetPerimeterSpacing=0;endSize=10;" edge="1" parent="1" source="sHGMJRsQZEN2XZA7WR1m-22">
          <mxGeometry relative="1" as="geometry">
            <mxPoint x="480" y="245" as="sourcePoint" />
            <mxPoint x="810" y="370" as="targetPoint" />
          </mxGeometry>
        </mxCell>
        <mxCell id="sHGMJRsQZEN2XZA7WR1m-42" value="" style="ellipse;whiteSpace=wrap;html=1;align=center;aspect=fixed;fillColor=none;strokeColor=none;resizable=0;perimeter=centerPerimeter;rotatable=0;allowArrows=0;points=[];outlineConnect=1;" vertex="1" parent="1">
          <mxGeometry x="495" y="240" width="10" height="10" as="geometry" />
        </mxCell>
        <mxCell id="sHGMJRsQZEN2XZA7WR1m-43" value="&lt;p style=&quot;margin:0px;margin-top:6px;text-align:center;&quot;&gt;&amp;lt;&amp;lt;component&amp;gt;&amp;gt;&lt;/p&gt;&lt;p style=&quot;margin:0px;margin-top:6px;text-align:center;&quot;&gt;Enable/Disable Printer&lt;/p&gt;" style="align=left;overflow=fill;html=1;dropTarget=0;whiteSpace=wrap;fontStyle=1" vertex="1" parent="1">
          <mxGeometry x="245" y="580" width="150" height="50" as="geometry" />
        </mxCell>
        <mxCell id="sHGMJRsQZEN2XZA7WR1m-44" value="" style="shape=component;jettyWidth=8;jettyHeight=4;" vertex="1" parent="sHGMJRsQZEN2XZA7WR1m-43">
          <mxGeometry x="1" width="20" height="20" relative="1" as="geometry">
            <mxPoint x="-24" y="4" as="offset" />
          </mxGeometry>
        </mxCell>
        <mxCell id="sHGMJRsQZEN2XZA7WR1m-45" value="" style="rounded=0;orthogonalLoop=1;jettySize=auto;html=1;endArrow=halfCircle;endFill=0;endSize=6;strokeWidth=1;sketch=0;" edge="1" parent="1" source="sHGMJRsQZEN2XZA7WR1m-43">
          <mxGeometry relative="1" as="geometry">
            <mxPoint x="430" y="810" as="sourcePoint" />
            <mxPoint x="430" y="605" as="targetPoint" />
          </mxGeometry>
        </mxCell>
        <mxCell id="sHGMJRsQZEN2XZA7WR1m-46" value="&lt;p style=&quot;margin:0px;margin-top:6px;text-align:center;&quot;&gt;&amp;lt;&amp;lt;component&amp;gt;&amp;gt;&lt;/p&gt;&lt;p style=&quot;margin:0px;margin-top:6px;text-align:center;&quot;&gt;Show Printers Information&lt;/p&gt;" style="align=left;overflow=fill;html=1;dropTarget=0;whiteSpace=wrap;fontStyle=1" vertex="1" parent="1">
          <mxGeometry x="245" y="410" width="160" height="50" as="geometry" />
        </mxCell>
        <mxCell id="sHGMJRsQZEN2XZA7WR1m-47" value="" style="shape=component;jettyWidth=8;jettyHeight=4;" vertex="1" parent="sHGMJRsQZEN2XZA7WR1m-46">
          <mxGeometry x="1" width="20" height="20" relative="1" as="geometry">
            <mxPoint x="-24" y="4" as="offset" />
          </mxGeometry>
        </mxCell>
        <mxCell id="sHGMJRsQZEN2XZA7WR1m-49" value="&lt;p style=&quot;margin:0px;margin-top:6px;text-align:center;&quot;&gt;&amp;lt;&amp;lt;component&amp;gt;&amp;gt;&lt;/p&gt;&lt;p style=&quot;margin:0px;margin-top:6px;text-align:center;&quot;&gt;View Logs&lt;/p&gt;" style="align=left;overflow=fill;html=1;dropTarget=0;whiteSpace=wrap;fontStyle=1" vertex="1" parent="1">
          <mxGeometry x="440" y="290" width="150" height="50" as="geometry" />
        </mxCell>
        <mxCell id="sHGMJRsQZEN2XZA7WR1m-50" value="" style="shape=component;jettyWidth=8;jettyHeight=4;" vertex="1" parent="sHGMJRsQZEN2XZA7WR1m-49">
          <mxGeometry x="1" width="20" height="20" relative="1" as="geometry">
            <mxPoint x="-24" y="4" as="offset" />
          </mxGeometry>
        </mxCell>
        <mxCell id="sHGMJRsQZEN2XZA7WR1m-51" value="logs info" style="rounded=0;orthogonalLoop=1;jettySize=auto;html=1;endArrow=halfCircle;endFill=0;endSize=6;strokeWidth=1;sketch=0;" edge="1" parent="1" source="sHGMJRsQZEN2XZA7WR1m-49">
          <mxGeometry x="0.9509" y="29" relative="1" as="geometry">
            <mxPoint x="790" y="615" as="sourcePoint" />
            <mxPoint x="810" y="370" as="targetPoint" />
            <mxPoint as="offset" />
          </mxGeometry>
        </mxCell>
        <mxCell id="sHGMJRsQZEN2XZA7WR1m-52" value="&lt;p style=&quot;margin:0px;margin-top:6px;text-align:center;&quot;&gt;&amp;lt;&amp;lt;component&amp;gt;&amp;gt;&lt;/p&gt;&lt;p style=&quot;margin:0px;margin-top:6px;text-align:center;&quot;&gt;Change Printer Config&lt;/p&gt;" style="align=left;overflow=fill;html=1;dropTarget=0;whiteSpace=wrap;fontStyle=1" vertex="1" parent="1">
          <mxGeometry x="245" y="500" width="150" height="50" as="geometry" />
        </mxCell>
        <mxCell id="sHGMJRsQZEN2XZA7WR1m-53" value="" style="shape=component;jettyWidth=8;jettyHeight=4;" vertex="1" parent="sHGMJRsQZEN2XZA7WR1m-52">
          <mxGeometry x="1" width="20" height="20" relative="1" as="geometry">
            <mxPoint x="-24" y="4" as="offset" />
          </mxGeometry>
        </mxCell>
        <mxCell id="sHGMJRsQZEN2XZA7WR1m-54" value="" style="rounded=0;orthogonalLoop=1;jettySize=auto;html=1;endArrow=halfCircle;endFill=0;endSize=6;strokeWidth=1;sketch=0;" edge="1" parent="1" source="sHGMJRsQZEN2XZA7WR1m-52">
          <mxGeometry relative="1" as="geometry">
            <mxPoint x="435" y="740" as="sourcePoint" />
            <mxPoint x="430" y="525" as="targetPoint" />
          </mxGeometry>
        </mxCell>
        <mxCell id="sHGMJRsQZEN2XZA7WR1m-58" value="" style="ellipse;whiteSpace=wrap;html=1;align=center;aspect=fixed;fillColor=none;strokeColor=none;resizable=0;perimeter=centerPerimeter;rotatable=0;allowArrows=0;points=[];outlineConnect=1;" vertex="1" parent="1">
          <mxGeometry x="1085" y="530" width="10" height="10" as="geometry" />
        </mxCell>
        <mxCell id="sHGMJRsQZEN2XZA7WR1m-59" value="" style="ellipse;whiteSpace=wrap;html=1;align=center;aspect=fixed;fillColor=none;strokeColor=none;resizable=0;perimeter=centerPerimeter;rotatable=0;allowArrows=0;points=[];outlineConnect=1;" vertex="1" parent="1">
          <mxGeometry x="1085" y="530" width="10" height="10" as="geometry" />
        </mxCell>
        <mxCell id="sHGMJRsQZEN2XZA7WR1m-60" value="Printer API" style="rounded=0;orthogonalLoop=1;jettySize=auto;html=1;endArrow=oval;endFill=0;sketch=0;sourcePerimeterSpacing=0;targetPerimeterSpacing=0;endSize=10;exitX=0.5;exitY=1;exitDx=0;exitDy=0;" edge="1" parent="1" source="sHGMJRsQZEN2XZA7WR1m-18">
          <mxGeometry x="1" y="-20" relative="1" as="geometry">
            <mxPoint x="940" y="570" as="sourcePoint" />
            <mxPoint x="810" y="580" as="targetPoint" />
            <mxPoint as="offset" />
            <Array as="points">
              <mxPoint x="1275" y="580" />
            </Array>
          </mxGeometry>
        </mxCell>
        <mxCell id="sHGMJRsQZEN2XZA7WR1m-67" value="" style="rounded=0;orthogonalLoop=1;jettySize=auto;html=1;endArrow=oval;endFill=0;sketch=0;sourcePerimeterSpacing=0;targetPerimeterSpacing=0;endSize=10;" edge="1" parent="1" source="sHGMJRsQZEN2XZA7WR1m-46">
          <mxGeometry relative="1" as="geometry">
            <mxPoint x="650" y="495" as="sourcePoint" />
            <mxPoint x="160" y="435" as="targetPoint" />
          </mxGeometry>
        </mxCell>
        <mxCell id="sHGMJRsQZEN2XZA7WR1m-68" value="" style="ellipse;whiteSpace=wrap;html=1;align=center;aspect=fixed;fillColor=none;strokeColor=none;resizable=0;perimeter=centerPerimeter;rotatable=0;allowArrows=0;points=[];outlineConnect=1;" vertex="1" parent="1">
          <mxGeometry x="530" y="565" width="10" height="10" as="geometry" />
        </mxCell>
        <mxCell id="sHGMJRsQZEN2XZA7WR1m-75" value="Use" style="endArrow=open;endSize=12;dashed=1;html=1;rounded=0;" edge="1" parent="1">
          <mxGeometry width="160" relative="1" as="geometry">
            <mxPoint x="430" y="520" as="sourcePoint" />
            <mxPoint x="810" y="580" as="targetPoint" />
          </mxGeometry>
        </mxCell>
        <mxCell id="sHGMJRsQZEN2XZA7WR1m-77" value="Use" style="endArrow=open;endSize=12;dashed=1;html=1;rounded=0;" edge="1" parent="1">
          <mxGeometry width="160" relative="1" as="geometry">
            <mxPoint x="430" y="600" as="sourcePoint" />
            <mxPoint x="810" y="580" as="targetPoint" />
          </mxGeometry>
        </mxCell>
        <mxCell id="sHGMJRsQZEN2XZA7WR1m-78" value="Use" style="endArrow=open;endSize=12;dashed=1;html=1;rounded=0;" edge="1" parent="1">
          <mxGeometry width="160" relative="1" as="geometry">
            <mxPoint x="430" y="680" as="sourcePoint" />
            <mxPoint x="810" y="580" as="targetPoint" />
          </mxGeometry>
        </mxCell>
        <mxCell id="sHGMJRsQZEN2XZA7WR1m-79" value="Use" style="endArrow=open;endSize=12;dashed=1;html=1;rounded=0;" edge="1" parent="1">
          <mxGeometry width="160" relative="1" as="geometry">
            <mxPoint x="430" y="440" as="sourcePoint" />
            <mxPoint x="810" y="580" as="targetPoint" />
          </mxGeometry>
        </mxCell>
        <mxCell id="sHGMJRsQZEN2XZA7WR1m-80" value="" style="rounded=0;orthogonalLoop=1;jettySize=auto;html=1;endArrow=oval;endFill=0;sketch=0;sourcePerimeterSpacing=0;targetPerimeterSpacing=0;endSize=10;" edge="1" parent="1" source="sHGMJRsQZEN2XZA7WR1m-49">
          <mxGeometry relative="1" as="geometry">
            <mxPoint x="650" y="485" as="sourcePoint" />
            <mxPoint x="170" y="310" as="targetPoint" />
          </mxGeometry>
        </mxCell>
        <mxCell id="sHGMJRsQZEN2XZA7WR1m-81" value="" style="rounded=0;orthogonalLoop=1;jettySize=auto;html=1;endArrow=oval;endFill=0;sketch=0;sourcePerimeterSpacing=0;targetPerimeterSpacing=0;endSize=10;" edge="1" parent="1" source="sHGMJRsQZEN2XZA7WR1m-52">
          <mxGeometry relative="1" as="geometry">
            <mxPoint x="650" y="495" as="sourcePoint" />
            <mxPoint x="160" y="525" as="targetPoint" />
          </mxGeometry>
        </mxCell>
        <mxCell id="sHGMJRsQZEN2XZA7WR1m-82" value="" style="rounded=0;orthogonalLoop=1;jettySize=auto;html=1;endArrow=oval;endFill=0;sketch=0;sourcePerimeterSpacing=0;targetPerimeterSpacing=0;endSize=10;" edge="1" parent="1" source="sHGMJRsQZEN2XZA7WR1m-43">
          <mxGeometry relative="1" as="geometry">
            <mxPoint x="650" y="495" as="sourcePoint" />
            <mxPoint x="160" y="605" as="targetPoint" />
          </mxGeometry>
        </mxCell>
        <mxCell id="sHGMJRsQZEN2XZA7WR1m-83" value="" style="rounded=0;orthogonalLoop=1;jettySize=auto;html=1;endArrow=oval;endFill=0;sketch=0;sourcePerimeterSpacing=0;targetPerimeterSpacing=0;endSize=10;" edge="1" parent="1" source="sHGMJRsQZEN2XZA7WR1m-10">
          <mxGeometry relative="1" as="geometry">
            <mxPoint x="650" y="495" as="sourcePoint" />
            <mxPoint x="160" y="685" as="targetPoint" />
          </mxGeometry>
        </mxCell>
        <mxCell id="sHGMJRsQZEN2XZA7WR1m-84" value="&lt;p style=&quot;margin:0px;margin-top:6px;text-align:center;&quot;&gt;&amp;lt;&amp;lt;component&amp;gt;&amp;gt;&lt;/p&gt;&lt;p style=&quot;margin:0px;margin-top:6px;text-align:center;&quot;&gt;Update Driver Printer&lt;/p&gt;" style="align=left;overflow=fill;html=1;dropTarget=0;whiteSpace=wrap;fontStyle=1" vertex="1" parent="1">
          <mxGeometry x="245" y="340" width="160" height="50" as="geometry" />
        </mxCell>
        <mxCell id="sHGMJRsQZEN2XZA7WR1m-85" value="" style="shape=component;jettyWidth=8;jettyHeight=4;" vertex="1" parent="sHGMJRsQZEN2XZA7WR1m-84">
          <mxGeometry x="1" width="20" height="20" relative="1" as="geometry">
            <mxPoint x="-24" y="4" as="offset" />
          </mxGeometry>
        </mxCell>
        <mxCell id="sHGMJRsQZEN2XZA7WR1m-86" value="" style="rounded=0;orthogonalLoop=1;jettySize=auto;html=1;endArrow=oval;endFill=0;sketch=0;sourcePerimeterSpacing=0;targetPerimeterSpacing=0;endSize=10;" edge="1" parent="1" source="sHGMJRsQZEN2XZA7WR1m-84">
          <mxGeometry relative="1" as="geometry">
            <mxPoint x="650" y="425" as="sourcePoint" />
            <mxPoint x="170" y="365" as="targetPoint" />
          </mxGeometry>
        </mxCell>
        <mxCell id="sHGMJRsQZEN2XZA7WR1m-87" value="" style="rounded=0;orthogonalLoop=1;jettySize=auto;html=1;endArrow=halfCircle;endFill=0;endSize=6;strokeWidth=1;sketch=0;" edge="1" parent="1" source="sHGMJRsQZEN2XZA7WR1m-46">
          <mxGeometry relative="1" as="geometry">
            <mxPoint x="435" y="740" as="sourcePoint" />
            <mxPoint x="430" y="440" as="targetPoint" />
          </mxGeometry>
        </mxCell>
        <mxCell id="sHGMJRsQZEN2XZA7WR1m-88" value="" style="rounded=0;orthogonalLoop=1;jettySize=auto;html=1;endArrow=halfCircle;endFill=0;endSize=6;strokeWidth=1;sketch=0;" edge="1" parent="1" source="sHGMJRsQZEN2XZA7WR1m-84">
          <mxGeometry relative="1" as="geometry">
            <mxPoint x="435" y="740" as="sourcePoint" />
            <mxPoint x="440" y="365" as="targetPoint" />
          </mxGeometry>
        </mxCell>
        <mxCell id="sHGMJRsQZEN2XZA7WR1m-89" value="Use" style="endArrow=open;endSize=12;dashed=1;html=1;rounded=0;" edge="1" parent="1">
          <mxGeometry width="160" relative="1" as="geometry">
            <mxPoint x="440" y="360" as="sourcePoint" />
            <mxPoint x="810" y="580" as="targetPoint" />
          </mxGeometry>
        </mxCell>
        <mxCell id="sHGMJRsQZEN2XZA7WR1m-91" value="Use" style="endArrow=open;endSize=12;dashed=1;html=1;rounded=0;" edge="1" parent="1">
          <mxGeometry width="160" relative="1" as="geometry">
            <mxPoint x="110" y="450" as="sourcePoint" />
            <mxPoint x="170" y="310" as="targetPoint" />
          </mxGeometry>
        </mxCell>
        <mxCell id="sHGMJRsQZEN2XZA7WR1m-92" value="Use" style="endArrow=open;endSize=12;dashed=1;html=1;rounded=0;" edge="1" parent="1">
          <mxGeometry width="160" relative="1" as="geometry">
            <mxPoint x="110" y="450" as="sourcePoint" />
            <mxPoint x="170" y="360" as="targetPoint" />
          </mxGeometry>
        </mxCell>
        <mxCell id="sHGMJRsQZEN2XZA7WR1m-93" value="Use" style="endArrow=open;endSize=12;dashed=1;html=1;rounded=0;" edge="1" parent="1">
          <mxGeometry width="160" relative="1" as="geometry">
            <mxPoint x="110" y="450" as="sourcePoint" />
            <mxPoint x="160" y="430" as="targetPoint" />
          </mxGeometry>
        </mxCell>
        <mxCell id="sHGMJRsQZEN2XZA7WR1m-94" value="Use" style="endArrow=open;endSize=12;dashed=1;html=1;rounded=0;" edge="1" parent="1">
          <mxGeometry width="160" relative="1" as="geometry">
            <mxPoint x="110" y="450" as="sourcePoint" />
            <mxPoint x="160" y="530" as="targetPoint" />
          </mxGeometry>
        </mxCell>
        <mxCell id="sHGMJRsQZEN2XZA7WR1m-95" value="Use" style="endArrow=open;endSize=12;dashed=1;html=1;rounded=0;" edge="1" parent="1">
          <mxGeometry width="160" relative="1" as="geometry">
            <mxPoint x="110" y="450" as="sourcePoint" />
            <mxPoint x="160" y="600" as="targetPoint" />
          </mxGeometry>
        </mxCell>
        <mxCell id="sHGMJRsQZEN2XZA7WR1m-96" value="Use" style="endArrow=open;endSize=12;dashed=1;html=1;rounded=0;" edge="1" parent="1">
          <mxGeometry width="160" relative="1" as="geometry">
            <mxPoint x="110" y="450" as="sourcePoint" />
            <mxPoint x="160" y="690" as="targetPoint" />
          </mxGeometry>
        </mxCell>
        <mxCell id="rslGNqyeEE258684DSu--2" value="" style="rounded=0;orthogonalLoop=1;jettySize=auto;html=1;endArrow=oval;endFill=0;sketch=0;sourcePerimeterSpacing=0;targetPerimeterSpacing=0;endSize=10;exitX=0;exitY=0.5;exitDx=0;exitDy=0;" edge="1" parent="1" source="sHGMJRsQZEN2XZA7WR1m-5">
          <mxGeometry relative="1" as="geometry">
            <mxPoint x="-120" y="495" as="sourcePoint" />
            <mxPoint x="-480" y="450" as="targetPoint" />
          </mxGeometry>
        </mxCell>
        <mxCell id="rslGNqyeEE258684DSu--3" value="" style="ellipse;whiteSpace=wrap;html=1;align=center;aspect=fixed;fillColor=none;strokeColor=none;resizable=0;perimeter=centerPerimeter;rotatable=0;allowArrows=0;points=[];outlineConnect=1;" vertex="1" parent="1">
          <mxGeometry x="-105" y="490" width="10" height="10" as="geometry" />
        </mxCell>
        <mxCell id="rslGNqyeEE258684DSu--5" value="&lt;div style=&quot;text-align: center;&quot;&gt;&lt;b style=&quot;background-color: initial;&quot;&gt;Printer manangement component diagram&lt;/b&gt;&lt;/div&gt;&lt;div style=&quot;text-align: center; font-size: 20px;&quot;&gt;&lt;br style=&quot;font-size: 20px;&quot;&gt;&lt;/div&gt;&lt;div style=&quot;font-size: 20px;&quot;&gt;&lt;div style=&quot;font-size: 20px;&quot; class=&quot;flex max-w-full flex-col flex-grow&quot;&gt;&lt;div style=&quot;font-size: 20px;&quot; data-message-model-slug=&quot;gpt-4o&quot; class=&quot;min-h-8 text-message flex w-full flex-col items-end gap-2 whitespace-normal break-words [.text-message+&amp;amp;]:mt-5&quot; dir=&quot;auto&quot; data-message-id=&quot;8f0dd080-0b0a-4867-adc0-ba0d6ea0943f&quot; data-message-author-role=&quot;assistant&quot;&gt;&lt;div style=&quot;font-size: 20px;&quot; class=&quot;flex w-full flex-col gap-1 empty:hidden first:pt-[3px]&quot;&gt;&lt;div style=&quot;font-size: 20px;&quot; class=&quot;markdown prose w-full break-words dark:prose-invert light&quot;&gt;&lt;p style=&quot;font-size: 20px;&quot;&gt;The Printer Management component diagram for the printing service consists of three main components: Printer Management, Controller, and Database. The &lt;strong style=&quot;font-size: 20px;&quot;&gt;Printer Management&lt;/strong&gt; component serves as the main interface for admins, allowing them to manage printer operations. The &lt;strong style=&quot;font-size: 20px;&quot;&gt;Controller&lt;/strong&gt; component includes several utility modules that handle specific tasks, such as viewing logs, updating printer drivers, displaying printer information, changing printer configurations, enabling or disabling printers, and adding or removing printers. These modules interact with the Database to retrieve necessary data via the &lt;em style=&quot;font-size: 20px;&quot;&gt;Logs&lt;/em&gt; and &lt;em style=&quot;font-size: 20px;&quot;&gt;Printer API&lt;/em&gt; interfaces. The &lt;strong style=&quot;font-size: 20px;&quot;&gt;Database&lt;/strong&gt; component stores essential information in the &lt;em style=&quot;font-size: 20px;&quot;&gt;User&lt;/em&gt; and &lt;em style=&quot;font-size: 20px;&quot;&gt;Printer&lt;/em&gt; subcomponents, which supply &lt;em style=&quot;font-size: 20px;&quot;&gt;user info&lt;/em&gt; and &lt;em style=&quot;font-size: 20px;&quot;&gt;printer info&lt;/em&gt; as needed. The &lt;em style=&quot;font-size: 20px;&quot;&gt;Logs&lt;/em&gt; subcomponent keeps track of activity records, which the Controller references for logging and status updates. Together, these components ensure efficient management and monitoring of printer services by admins.&lt;/p&gt;&lt;/div&gt;&lt;/div&gt;&lt;/div&gt;&lt;/div&gt;&lt;div style=&quot;font-size: 20px;&quot; class=&quot;mb-2 flex gap-3 empty:hidden -ml-2&quot;&gt;&lt;div style=&quot;font-size: 20px;&quot; class=&quot;items-center justify-start rounded-xl p-1 flex&quot;&gt;&lt;div style=&quot;font-size: 20px;&quot; class=&quot;flex items-center&quot;&gt;&lt;span style=&quot;font-size: 20px;&quot; data-state=&quot;closed&quot; class=&quot;&quot;&gt;&lt;button style=&quot;font-size: 20px;&quot; data-testid=&quot;voice-play-turn-action-button&quot; aria-label=&quot;Read aloud&quot; class=&quot;rounded-lg text-token-text-secondary hover:bg-token-main-surface-secondary&quot;&gt;&lt;span style=&quot;font-size: 20px;&quot; class=&quot;flex h-[30px] w-[30px] items-center justify-center&quot;&gt;&lt;svg style=&quot;font-size: 20px;&quot; class=&quot;icon-md-heavy&quot; xmlns=&quot;http://www.w3.org/2000/svg&quot; fill=&quot;none&quot; viewBox=&quot;0 0 24 24&quot; height=&quot;24&quot; width=&quot;24&quot;&gt;&lt;path style=&quot;font-size: 20px;&quot; fill=&quot;currentColor&quot; d=&quot;M11 4.9099C11 4.47485 10.4828 4.24734 10.1621 4.54132L6.67572 7.7372C6.49129 7.90626 6.25019 8.00005 6 8.00005H4C3.44772 8.00005 3 8.44776 3 9.00005V15C3 15.5523 3.44772 16 4 16H6C6.25019 16 6.49129 16.0938 6.67572 16.2629L10.1621 19.4588C10.4828 19.7527 11 19.5252 11 19.0902V4.9099ZM8.81069 3.06701C10.4142 1.59714 13 2.73463 13 4.9099V19.0902C13 21.2655 10.4142 22.403 8.81069 20.9331L5.61102 18H4C2.34315 18 1 16.6569 1 15V9.00005C1 7.34319 2.34315 6.00005 4 6.00005H5.61102L8.81069 3.06701ZM20.3166 6.35665C20.8019 6.09313 21.409 6.27296 21.6725 6.75833C22.5191 8.3176 22.9996 10.1042 22.9996 12.0001C22.9996 13.8507 22.5418 15.5974 21.7323 17.1302C21.4744 17.6185 20.8695 17.8054 20.3811 17.5475C19.8927 17.2896 19.7059 16.6846 19.9638 16.1962C20.6249 14.9444 20.9996 13.5175 20.9996 12.0001C20.9996 10.4458 20.6064 8.98627 19.9149 7.71262C19.6514 7.22726 19.8312 6.62017 20.3166 6.35665ZM15.7994 7.90049C16.241 7.5688 16.8679 7.65789 17.1995 8.09947C18.0156 9.18593 18.4996 10.5379 18.4996 12.0001C18.4996 13.3127 18.1094 14.5372 17.4385 15.5604C17.1357 16.0222 16.5158 16.1511 16.0539 15.8483C15.5921 15.5455 15.4632 14.9255 15.766 14.4637C16.2298 13.7564 16.4996 12.9113 16.4996 12.0001C16.4996 10.9859 16.1653 10.0526 15.6004 9.30063C15.2687 8.85905 15.3578 8.23218 15.7994 7.90049Z&quot; clip-rule=&quot;evenodd&quot; fill-rule=&quot;evenodd&quot;&gt;&lt;/path&gt;&lt;/svg&gt;&lt;/span&gt;&lt;/button&gt;&lt;/span&gt;&lt;span style=&quot;font-size: 20px;&quot; data-state=&quot;closed&quot; class=&quot;&quot;&gt;&lt;button style=&quot;font-size: 20px;&quot; data-testid=&quot;copy-turn-action-button&quot; aria-label=&quot;Copy&quot; class=&quot;rounded-lg text-token-text-secondary hover:bg-token-main-surface-secondary&quot;&gt;&lt;span style=&quot;font-size: 20px;&quot; class=&quot;flex h-[30px] w-[30px] items-center justify-center&quot;&gt;&lt;svg style=&quot;font-size: 20px;&quot; class=&quot;icon-md-heavy&quot; xmlns=&quot;http://www.w3.org/2000/svg&quot; fill=&quot;none&quot; viewBox=&quot;0 0 24 24&quot; height=&quot;24&quot; width=&quot;24&quot;&gt;&lt;path style=&quot;font-size: 20px;&quot; fill=&quot;currentColor&quot; d=&quot;M7 5C7 3.34315 8.34315 2 10 2H19C20.6569 2 22 3.34315 22 5V14C22 15.6569 20.6569 17 19 17H17V19C17 20.6569 15.6569 22 14 22H5C3.34315 22 2 20.6569 2 19V10C2 8.34315 3.34315 7 5 7H7V5ZM9 7H14C15.6569 7 17 8.34315 17 10V15H19C19.5523 15 20 14.5523 20 14V5C20 4.44772 19.5523 4 19 4H10C9.44772 4 9 4.44772 9 5V7ZM5 9C4.44772 9 4 9.44772 4 10V19C4 19.5523 4.44772 20 5 20H14C14.5523 20 15 19.5523 15 19V10C15 9.44772 14.5523 9 14 9H5Z&quot; clip-rule=&quot;evenodd&quot; fill-rule=&quot;evenodd&quot;&gt;&lt;/path&gt;&lt;/svg&gt;&lt;/span&gt;&lt;/button&gt;&lt;/span&gt;&lt;div style=&quot;font-size: 20px;&quot; class=&quot;flex&quot;&gt;&lt;span style=&quot;font-size: 20px;&quot; data-state=&quot;closed&quot; class=&quot;&quot;&gt;&lt;button style=&quot;font-size: 20px;&quot; data-testid=&quot;good-response-turn-action-button&quot; aria-label=&quot;Good response&quot; class=&quot;rounded-lg text-token-text-secondary hover:bg-token-main-surface-secondary&quot;&gt;&lt;span style=&quot;font-size: 20px;&quot; class=&quot;flex h-[30px] w-[30px] items-center justify-center&quot;&gt;&lt;svg style=&quot;font-size: 20px;&quot; class=&quot;icon-md-heavy&quot; xmlns=&quot;http://www.w3.org/2000/svg&quot; fill=&quot;none&quot; viewBox=&quot;0 0 24 24&quot; height=&quot;24&quot; width=&quot;24&quot;&gt;&lt;path style=&quot;font-size: 20px;&quot; fill=&quot;currentColor&quot; d=&quot;M12.1318 2.50389C12.3321 2.15338 12.7235 1.95768 13.124 2.00775L13.5778 2.06447C16.0449 2.37286 17.636 4.83353 16.9048 7.20993L16.354 8.99999H17.0722C19.7097 8.99999 21.6253 11.5079 20.9313 14.0525L19.5677 19.0525C19.0931 20.7927 17.5124 22 15.7086 22H6C4.34315 22 3 20.6568 3 19V12C3 10.3431 4.34315 8.99999 6 8.99999H8C8.25952 8.99999 8.49914 8.86094 8.6279 8.63561L12.1318 2.50389ZM10 20H15.7086C16.6105 20 17.4008 19.3964 17.6381 18.5262L19.0018 13.5262C19.3488 12.2539 18.391 11 17.0722 11H15C14.6827 11 14.3841 10.8494 14.1956 10.5941C14.0071 10.3388 13.9509 10.0092 14.0442 9.70591L14.9932 6.62175C15.3384 5.49984 14.6484 4.34036 13.5319 4.08468L10.3644 9.62789C10.0522 10.1742 9.56691 10.5859 9 10.8098V19C9 19.5523 9.44772 20 10 20ZM7 11V19C7 19.3506 7.06015 19.6872 7.17071 20H6C5.44772 20 5 19.5523 5 19V12C5 11.4477 5.44772 11 6 11H7Z&quot; clip-rule=&quot;evenodd&quot; fill-rule=&quot;evenodd&quot;&gt;&lt;/path&gt;&lt;/svg&gt;&lt;/span&gt;&lt;/button&gt;&lt;/span&gt;&lt;span style=&quot;font-size: 20px;&quot; data-state=&quot;closed&quot; class=&quot;&quot;&gt;&lt;button style=&quot;font-size: 20px;&quot; data-testid=&quot;bad-response-turn-action-button&quot; aria-label=&quot;Bad response&quot; class=&quot;rounded-lg text-token-text-secondary hover:bg-token-main-surface-secondary&quot;&gt;&lt;span style=&quot;font-size: 20px;&quot; class=&quot;flex h-[30px] w-[30px] items-center justify-center&quot;&gt;&lt;svg style=&quot;font-size: 20px;&quot; class=&quot;icon-md-heavy&quot; xmlns=&quot;http://www.w3.org/2000/svg&quot; fill=&quot;none&quot; viewBox=&quot;0 0 24 24&quot; height=&quot;24&quot; width=&quot;24&quot;&gt;&lt;path style=&quot;font-size: 20px;&quot; fill=&quot;currentColor&quot; d=&quot;M11.8727 21.4961C11.6725 21.8466 11.2811 22.0423 10.8805 21.9922L10.4267 21.9355C7.95958 21.6271 6.36855 19.1665 7.09975 16.7901L7.65054 15H6.93226C4.29476 15 2.37923 12.4921 3.0732 9.94753L4.43684 4.94753C4.91145 3.20728 6.49209 2 8.29589 2H18.0045C19.6614 2 21.0045 3.34315 21.0045 5V12C21.0045 13.6569 19.6614 15 18.0045 15H16.0045C15.745 15 15.5054 15.1391 15.3766 15.3644L11.8727 21.4961ZM14.0045 4H8.29589C7.39399 4 6.60367 4.60364 6.36637 5.47376L5.00273 10.4738C4.65574 11.746 5.61351 13 6.93226 13H9.00451C9.32185 13 9.62036 13.1506 9.8089 13.4059C9.99743 13.6612 10.0536 13.9908 9.96028 14.2941L9.01131 17.3782C8.6661 18.5002 9.35608 19.6596 10.4726 19.9153L13.6401 14.3721C13.9523 13.8258 14.4376 13.4141 15.0045 13.1902V5C15.0045 4.44772 14.5568 4 14.0045 4ZM17.0045 13V5C17.0045 4.64937 16.9444 4.31278 16.8338 4H18.0045C18.5568 4 19.0045 4.44772 19.0045 5V12C19.0045 12.5523 18.5568 13 18.0045 13H17.0045Z&quot; clip-rule=&quot;evenodd&quot; fill-rule=&quot;evenodd&quot;&gt;&lt;/path&gt;&lt;/svg&gt;&lt;/span&gt;&lt;/button&gt;&lt;/span&gt;&lt;/div&gt;&lt;span style=&quot;font-size: 20px;&quot; class=&quot;hidden&quot;&gt;&lt;/span&gt;&lt;span style=&quot;font-size: 20px;&quot; data-state=&quot;closed&quot; class=&quot;&quot;&gt;&lt;button style=&quot;font-size: 20px;&quot; class=&quot;cursor-pointer h-[30px] rounded-md px-1 text-token-text-secondary hover:bg-token-main-surface-secondary&quot; data-state=&quot;closed&quot; aria-expanded=&quot;false&quot; aria-haspopup=&quot;menu&quot; id=&quot;radix-:r6a:&quot; type=&quot;button&quot;&gt;&lt;div style=&quot;font-size: 20px;&quot; class=&quot;flex items-center pb-0&quot;&gt;&lt;svg style=&quot;font-size: 20px;&quot; class=&quot;icon-md&quot; xmlns=&quot;http://www.w3.org/2000/svg&quot; fill=&quot;none&quot; viewBox=&quot;0 0 24 24&quot; height=&quot;24&quot; width=&quot;24&quot;&gt;&lt;path style=&quot;font-size: 20px;&quot; fill=&quot;currentColor&quot; d=&quot;M3.06957 10.8763C3.62331 6.43564 7.40967 3 12 3C14.2824 3 16.4028 3.85067 18.0118 5.25439V4C18.0118 3.44772 18.4595 3 19.0118 3C19.5641 3 20.0118 3.44772 20.0118 4V8C20.0118 8.55228 19.5641 9 19.0118 9H15C14.4477 9 14 8.55228 14 8C14 7.44772 14.4477 7 15 7H16.9571C15.6757 5.76379 13.9101 5 12 5C8.43108 5 5.48466 7.67174 5.0542 11.1237C4.98586 11.6718 4.48619 12.0607 3.93815 11.9923C3.39011 11.924 3.00123 11.4243 3.06957 10.8763ZM20.0618 12.0077C20.6099 12.076 20.9988 12.5757 20.9304 13.1237C20.3767 17.5644 16.5903 21 12 21C9.72322 21 7.60762 20.1535 5.99999 18.7559V20C5.99999 20.5523 5.55228 21 4.99999 21C4.44771 21 3.99999 20.5523 3.99999 20V16C3.99999 15.4477 4.44771 15 4.99999 15H8.99999C9.55228 15 9.99999 15.4477 9.99999 16C9.99999 16.5523 9.55228 17 8.99999 17H7.04285C8.32433 18.2362 10.0899 19 12 19C15.5689 19 18.5153 16.3283 18.9458 12.8763C19.0141 12.3282 19.5138 11.9393 20.0618 12.0077Z&quot;&gt;&lt;/path&gt;&lt;/svg&gt;&lt;span style=&quot;font-size: 20px;&quot; class=&quot;overflow-hidden text-clip whitespace-nowrap text-sm&quot;&gt;&lt;/span&gt;&lt;/div&gt;&lt;/button&gt;&lt;/span&gt;&lt;/div&gt;&lt;/div&gt;&lt;/div&gt;&lt;/div&gt;" style="text;html=1;align=left;verticalAlign=middle;whiteSpace=wrap;rounded=0;fontSize=20;" vertex="1" parent="1">
          <mxGeometry x="80" y="10" width="810" height="30" as="geometry" />
        </mxCell>
      </root>
    </mxGraphModel>
  </diagram>
  <diagram id="bbMhmd3EN4qcaKJMmfYN" name="Page-2">
    <mxGraphModel grid="1" page="1" gridSize="10" guides="1" tooltips="1" connect="1" arrows="1" fold="1" pageScale="1" pageWidth="827" pageHeight="1169" math="0" shadow="0">
      <root>
        <mxCell id="0" />
        <mxCell id="1" parent="0" />
        <mxCell id="xx_vpH62JcAp3-ldikpK-1" value="&lt;p style=&quot;margin:0px;margin-top:6px;text-align:center;&quot;&gt;&amp;lt;&amp;lt;component&amp;gt;&amp;gt;&lt;/p&gt;&lt;p style=&quot;margin:0px;margin-top:6px;text-align:center;&quot;&gt;Printer Management&lt;/p&gt;" style="align=left;overflow=fill;html=1;dropTarget=0;whiteSpace=wrap;fontStyle=1" vertex="1" parent="1">
          <mxGeometry x="-390" y="225" width="470" height="525" as="geometry" />
        </mxCell>
        <mxCell id="xx_vpH62JcAp3-ldikpK-2" value="" style="shape=component;jettyWidth=8;jettyHeight=4;" vertex="1" parent="xx_vpH62JcAp3-ldikpK-1">
          <mxGeometry x="1" width="20" height="20" relative="1" as="geometry">
            <mxPoint x="-24" y="4" as="offset" />
          </mxGeometry>
        </mxCell>
        <mxCell id="xx_vpH62JcAp3-ldikpK-3" value="&lt;p style=&quot;margin:0px;margin-top:6px;text-align:center;&quot;&gt;&amp;lt;&amp;lt;component&amp;gt;&amp;gt;&lt;/p&gt;&lt;p style=&quot;margin:0px;margin-top:6px;text-align:center;&quot;&gt;Controller&lt;/p&gt;" style="align=left;overflow=fill;html=1;dropTarget=0;whiteSpace=wrap;fontStyle=1" vertex="1" parent="1">
          <mxGeometry x="200" y="225" width="560" height="525" as="geometry" />
        </mxCell>
        <mxCell id="xx_vpH62JcAp3-ldikpK-4" value="" style="shape=component;jettyWidth=8;jettyHeight=4;" vertex="1" parent="xx_vpH62JcAp3-ldikpK-3">
          <mxGeometry x="1" width="20" height="20" relative="1" as="geometry">
            <mxPoint x="-24" y="4" as="offset" />
          </mxGeometry>
        </mxCell>
        <mxCell id="xx_vpH62JcAp3-ldikpK-5" value="&lt;p style=&quot;margin:0px;margin-top:6px;text-align:center;&quot;&gt;&amp;lt;&amp;lt;component&amp;gt;&amp;gt;&lt;/p&gt;&lt;p style=&quot;margin:0px;margin-top:6px;text-align:center;&quot;&gt;Database&lt;/p&gt;" style="align=left;overflow=fill;html=1;dropTarget=0;whiteSpace=wrap;fontStyle=1" vertex="1" parent="1">
          <mxGeometry x="910" y="225" width="470" height="525" as="geometry" />
        </mxCell>
        <mxCell id="xx_vpH62JcAp3-ldikpK-6" value="" style="shape=component;jettyWidth=8;jettyHeight=4;" vertex="1" parent="xx_vpH62JcAp3-ldikpK-5">
          <mxGeometry x="1" width="20" height="20" relative="1" as="geometry">
            <mxPoint x="-24" y="4" as="offset" />
          </mxGeometry>
        </mxCell>
        <mxCell id="xx_vpH62JcAp3-ldikpK-7" value="&lt;p style=&quot;margin:0px;margin-top:6px;text-align:center;&quot;&gt;&amp;lt;&amp;lt;component&amp;gt;&amp;gt;&lt;/p&gt;&lt;p style=&quot;margin:0px;margin-top:6px;text-align:center;&quot;&gt;PrinterManagement&lt;/p&gt;" style="align=left;overflow=fill;html=1;dropTarget=0;whiteSpace=wrap;fontStyle=1" vertex="1" parent="1">
          <mxGeometry x="-220" y="425" width="150" height="50" as="geometry" />
        </mxCell>
        <mxCell id="xx_vpH62JcAp3-ldikpK-8" value="" style="shape=component;jettyWidth=8;jettyHeight=4;" vertex="1" parent="xx_vpH62JcAp3-ldikpK-7">
          <mxGeometry x="1" width="20" height="20" relative="1" as="geometry">
            <mxPoint x="-24" y="4" as="offset" />
          </mxGeometry>
        </mxCell>
        <mxCell id="xx_vpH62JcAp3-ldikpK-9" value="" style="ellipse;whiteSpace=wrap;html=1;align=center;aspect=fixed;fillColor=none;strokeColor=none;resizable=0;perimeter=centerPerimeter;rotatable=0;allowArrows=0;points=[];outlineConnect=1;" vertex="1" parent="1">
          <mxGeometry x="580" y="595" width="10" height="10" as="geometry" />
        </mxCell>
        <mxCell id="xx_vpH62JcAp3-ldikpK-10" value="&lt;p style=&quot;margin:0px;margin-top:6px;text-align:center;&quot;&gt;&amp;lt;&amp;lt;component&amp;gt;&amp;gt;&lt;/p&gt;&lt;p style=&quot;margin:0px;margin-top:6px;text-align:center;&quot;&gt;Add/Remove Printer&lt;/p&gt;" style="align=left;overflow=fill;html=1;dropTarget=0;whiteSpace=wrap;fontStyle=1" vertex="1" parent="1">
          <mxGeometry x="245" y="660" width="150" height="50" as="geometry" />
        </mxCell>
        <mxCell id="xx_vpH62JcAp3-ldikpK-11" value="" style="shape=component;jettyWidth=8;jettyHeight=4;" vertex="1" parent="xx_vpH62JcAp3-ldikpK-10">
          <mxGeometry x="1" width="20" height="20" relative="1" as="geometry">
            <mxPoint x="-24" y="4" as="offset" />
          </mxGeometry>
        </mxCell>
        <mxCell id="xx_vpH62JcAp3-ldikpK-12" value="manage" style="rounded=0;orthogonalLoop=1;jettySize=auto;html=1;endArrow=halfCircle;endFill=0;endSize=6;strokeWidth=1;sketch=0;fontSize=12;curved=1;exitX=1;exitY=0.5;exitDx=0;exitDy=0;" edge="1" parent="1" source="xx_vpH62JcAp3-ldikpK-7">
          <mxGeometry x="0.7778" y="20" relative="1" as="geometry">
            <mxPoint x="320" y="385" as="sourcePoint" />
            <mxPoint x="110" y="450" as="targetPoint" />
            <mxPoint as="offset" />
          </mxGeometry>
        </mxCell>
        <mxCell id="xx_vpH62JcAp3-ldikpK-13" value="" style="ellipse;whiteSpace=wrap;html=1;align=center;aspect=fixed;fillColor=none;strokeColor=none;resizable=0;perimeter=centerPerimeter;rotatable=0;allowArrows=0;points=[];outlineConnect=1;" vertex="1" parent="1">
          <mxGeometry x="630" y="320" width="10" height="10" as="geometry" />
        </mxCell>
        <mxCell id="xx_vpH62JcAp3-ldikpK-14" value="&lt;p style=&quot;margin: 6px 0px 0px;&quot;&gt;&amp;lt;&amp;lt;component&amp;gt;&amp;gt;&lt;/p&gt;&lt;p style=&quot;margin: 6px 0px 0px;&quot;&gt;User&lt;/p&gt;" style="align=center;overflow=fill;html=1;dropTarget=0;whiteSpace=wrap;fontStyle=1;verticalAlign=middle;" vertex="1" parent="1">
          <mxGeometry x="1200" y="280" width="150" height="50" as="geometry" />
        </mxCell>
        <mxCell id="xx_vpH62JcAp3-ldikpK-15" value="" style="shape=component;jettyWidth=8;jettyHeight=4;" vertex="1" parent="xx_vpH62JcAp3-ldikpK-14">
          <mxGeometry x="1" width="20" height="20" relative="1" as="geometry">
            <mxPoint x="-24" y="4" as="offset" />
          </mxGeometry>
        </mxCell>
        <mxCell id="xx_vpH62JcAp3-ldikpK-16" value="&lt;p style=&quot;margin: 6px 0px 0px;&quot;&gt;&amp;lt;&amp;lt;component&amp;gt;&amp;gt;&lt;/p&gt;&lt;p style=&quot;margin: 6px 0px 0px;&quot;&gt;Printer&lt;/p&gt;" style="align=center;overflow=fill;html=1;dropTarget=0;whiteSpace=wrap;fontStyle=1;verticalAlign=middle;" vertex="1" parent="1">
          <mxGeometry x="1200" y="510" width="150" height="50" as="geometry" />
        </mxCell>
        <mxCell id="xx_vpH62JcAp3-ldikpK-17" value="" style="shape=component;jettyWidth=8;jettyHeight=4;" vertex="1" parent="xx_vpH62JcAp3-ldikpK-16">
          <mxGeometry x="1" width="20" height="20" relative="1" as="geometry">
            <mxPoint x="-24" y="4" as="offset" />
          </mxGeometry>
        </mxCell>
        <mxCell id="xx_vpH62JcAp3-ldikpK-18" value="&lt;p style=&quot;margin: 6px 0px 0px;&quot;&gt;&amp;lt;&amp;lt;component&amp;gt;&amp;gt;&lt;/p&gt;&lt;p style=&quot;margin: 6px 0px 0px;&quot;&gt;Logs&lt;/p&gt;" style="align=center;overflow=fill;html=1;dropTarget=0;whiteSpace=wrap;fontStyle=1;verticalAlign=middle;" vertex="1" parent="1">
          <mxGeometry x="940" y="385" width="150" height="50" as="geometry" />
        </mxCell>
        <mxCell id="xx_vpH62JcAp3-ldikpK-19" value="" style="shape=component;jettyWidth=8;jettyHeight=4;" vertex="1" parent="xx_vpH62JcAp3-ldikpK-18">
          <mxGeometry x="1" width="20" height="20" relative="1" as="geometry">
            <mxPoint x="-24" y="4" as="offset" />
          </mxGeometry>
        </mxCell>
        <mxCell id="xx_vpH62JcAp3-ldikpK-20" value="" style="ellipse;whiteSpace=wrap;html=1;align=center;aspect=fixed;fillColor=none;strokeColor=none;resizable=0;perimeter=centerPerimeter;rotatable=0;allowArrows=0;points=[];outlineConnect=1;" vertex="1" parent="1">
          <mxGeometry x="610" y="299" width="10" height="10" as="geometry" />
        </mxCell>
        <mxCell id="xx_vpH62JcAp3-ldikpK-21" value="" style="rounded=0;orthogonalLoop=1;jettySize=auto;html=1;endArrow=halfCircle;endFill=0;endSize=6;strokeWidth=1;sketch=0;" edge="1" parent="1" source="xx_vpH62JcAp3-ldikpK-18">
          <mxGeometry relative="1" as="geometry">
            <mxPoint x="1130" y="390" as="sourcePoint" />
            <mxPoint x="1130" y="410" as="targetPoint" />
          </mxGeometry>
        </mxCell>
        <mxCell id="xx_vpH62JcAp3-ldikpK-22" value="user info" style="rounded=0;orthogonalLoop=1;jettySize=auto;html=1;endArrow=oval;endFill=0;sketch=0;sourcePerimeterSpacing=0;targetPerimeterSpacing=0;endSize=10;" edge="1" parent="1" source="xx_vpH62JcAp3-ldikpK-14" target="xx_vpH62JcAp3-ldikpK-23">
          <mxGeometry x="1" y="-16" relative="1" as="geometry">
            <mxPoint x="1290" y="300" as="sourcePoint" />
            <mxPoint x="-5" y="1" as="offset" />
          </mxGeometry>
        </mxCell>
        <mxCell id="xx_vpH62JcAp3-ldikpK-23" value="" style="ellipse;whiteSpace=wrap;html=1;align=center;aspect=fixed;fillColor=none;strokeColor=none;resizable=0;perimeter=centerPerimeter;rotatable=0;allowArrows=0;points=[];outlineConnect=1;" vertex="1" parent="1">
          <mxGeometry x="1160" y="300" width="10" height="10" as="geometry" />
        </mxCell>
        <mxCell id="xx_vpH62JcAp3-ldikpK-24" value="" style="ellipse;whiteSpace=wrap;html=1;align=center;aspect=fixed;fillColor=none;strokeColor=none;resizable=0;perimeter=centerPerimeter;rotatable=0;allowArrows=0;points=[];outlineConnect=1;" vertex="1" parent="1">
          <mxGeometry x="1085" y="370" width="10" height="10" as="geometry" />
        </mxCell>
        <mxCell id="xx_vpH62JcAp3-ldikpK-25" value="Use" style="endArrow=open;endSize=12;dashed=1;html=1;rounded=0;entryX=0.1;entryY=0.5;entryDx=0;entryDy=0;entryPerimeter=0;" edge="1" parent="1" target="xx_vpH62JcAp3-ldikpK-23">
          <mxGeometry width="160" relative="1" as="geometry">
            <mxPoint x="1130" y="410" as="sourcePoint" />
            <mxPoint x="1160" y="320" as="targetPoint" />
            <Array as="points">
              <mxPoint x="1130" y="305" />
            </Array>
          </mxGeometry>
        </mxCell>
        <mxCell id="xx_vpH62JcAp3-ldikpK-26" value="Use" style="endArrow=open;endSize=12;dashed=1;html=1;rounded=0;" edge="1" parent="1">
          <mxGeometry x="0.0031" width="160" relative="1" as="geometry">
            <mxPoint x="1130" y="410" as="sourcePoint" />
            <mxPoint x="1190" y="540" as="targetPoint" />
            <Array as="points">
              <mxPoint x="1130" y="540" />
            </Array>
            <mxPoint as="offset" />
          </mxGeometry>
        </mxCell>
        <mxCell id="xx_vpH62JcAp3-ldikpK-27" value="printer info" style="rounded=0;orthogonalLoop=1;jettySize=auto;html=1;endArrow=oval;endFill=0;sketch=0;sourcePerimeterSpacing=0;targetPerimeterSpacing=0;endSize=10;" edge="1" parent="1" source="xx_vpH62JcAp3-ldikpK-16">
          <mxGeometry x="1" y="-15" relative="1" as="geometry">
            <mxPoint x="1085" y="375" as="sourcePoint" />
            <mxPoint x="1185" y="535" as="targetPoint" />
            <mxPoint as="offset" />
          </mxGeometry>
        </mxCell>
        <mxCell id="xx_vpH62JcAp3-ldikpK-28" value="" style="ellipse;whiteSpace=wrap;html=1;align=center;aspect=fixed;fillColor=none;strokeColor=none;resizable=0;perimeter=centerPerimeter;rotatable=0;allowArrows=0;points=[];outlineConnect=1;" vertex="1" parent="1">
          <mxGeometry x="1085" y="370" width="10" height="10" as="geometry" />
        </mxCell>
        <mxCell id="xx_vpH62JcAp3-ldikpK-29" value="" style="rounded=0;orthogonalLoop=1;jettySize=auto;html=1;endArrow=halfCircle;endFill=0;endSize=6;strokeWidth=1;sketch=0;" edge="1" parent="1" source="xx_vpH62JcAp3-ldikpK-10">
          <mxGeometry relative="1" as="geometry">
            <mxPoint x="425" y="890" as="sourcePoint" />
            <mxPoint x="425" y="685" as="targetPoint" />
          </mxGeometry>
        </mxCell>
        <mxCell id="xx_vpH62JcAp3-ldikpK-30" value="" style="rounded=0;orthogonalLoop=1;jettySize=auto;html=1;endArrow=oval;endFill=0;sketch=0;sourcePerimeterSpacing=0;targetPerimeterSpacing=0;endSize=10;" edge="1" parent="1" source="xx_vpH62JcAp3-ldikpK-18">
          <mxGeometry relative="1" as="geometry">
            <mxPoint x="480" y="245" as="sourcePoint" />
            <mxPoint x="810" y="370" as="targetPoint" />
          </mxGeometry>
        </mxCell>
        <mxCell id="xx_vpH62JcAp3-ldikpK-31" value="" style="ellipse;whiteSpace=wrap;html=1;align=center;aspect=fixed;fillColor=none;strokeColor=none;resizable=0;perimeter=centerPerimeter;rotatable=0;allowArrows=0;points=[];outlineConnect=1;" vertex="1" parent="1">
          <mxGeometry x="495" y="240" width="10" height="10" as="geometry" />
        </mxCell>
        <mxCell id="xx_vpH62JcAp3-ldikpK-32" value="&lt;p style=&quot;margin:0px;margin-top:6px;text-align:center;&quot;&gt;&amp;lt;&amp;lt;component&amp;gt;&amp;gt;&lt;/p&gt;&lt;p style=&quot;margin:0px;margin-top:6px;text-align:center;&quot;&gt;Enable/Disable Printer&lt;/p&gt;" style="align=left;overflow=fill;html=1;dropTarget=0;whiteSpace=wrap;fontStyle=1" vertex="1" parent="1">
          <mxGeometry x="245" y="580" width="150" height="50" as="geometry" />
        </mxCell>
        <mxCell id="xx_vpH62JcAp3-ldikpK-33" value="" style="shape=component;jettyWidth=8;jettyHeight=4;" vertex="1" parent="xx_vpH62JcAp3-ldikpK-32">
          <mxGeometry x="1" width="20" height="20" relative="1" as="geometry">
            <mxPoint x="-24" y="4" as="offset" />
          </mxGeometry>
        </mxCell>
        <mxCell id="xx_vpH62JcAp3-ldikpK-34" value="" style="rounded=0;orthogonalLoop=1;jettySize=auto;html=1;endArrow=halfCircle;endFill=0;endSize=6;strokeWidth=1;sketch=0;" edge="1" parent="1" source="xx_vpH62JcAp3-ldikpK-32">
          <mxGeometry relative="1" as="geometry">
            <mxPoint x="430" y="810" as="sourcePoint" />
            <mxPoint x="430" y="605" as="targetPoint" />
          </mxGeometry>
        </mxCell>
        <mxCell id="xx_vpH62JcAp3-ldikpK-35" value="&lt;p style=&quot;margin:0px;margin-top:6px;text-align:center;&quot;&gt;&amp;lt;&amp;lt;component&amp;gt;&amp;gt;&lt;/p&gt;&lt;p style=&quot;margin:0px;margin-top:6px;text-align:center;&quot;&gt;Show Printers Information&lt;/p&gt;" style="align=left;overflow=fill;html=1;dropTarget=0;whiteSpace=wrap;fontStyle=1" vertex="1" parent="1">
          <mxGeometry x="245" y="410" width="160" height="50" as="geometry" />
        </mxCell>
        <mxCell id="xx_vpH62JcAp3-ldikpK-36" value="" style="shape=component;jettyWidth=8;jettyHeight=4;" vertex="1" parent="xx_vpH62JcAp3-ldikpK-35">
          <mxGeometry x="1" width="20" height="20" relative="1" as="geometry">
            <mxPoint x="-24" y="4" as="offset" />
          </mxGeometry>
        </mxCell>
        <mxCell id="xx_vpH62JcAp3-ldikpK-37" value="&lt;p style=&quot;margin:0px;margin-top:6px;text-align:center;&quot;&gt;&amp;lt;&amp;lt;component&amp;gt;&amp;gt;&lt;/p&gt;&lt;p style=&quot;margin:0px;margin-top:6px;text-align:center;&quot;&gt;View Logs&lt;/p&gt;" style="align=left;overflow=fill;html=1;dropTarget=0;whiteSpace=wrap;fontStyle=1" vertex="1" parent="1">
          <mxGeometry x="440" y="290" width="150" height="50" as="geometry" />
        </mxCell>
        <mxCell id="xx_vpH62JcAp3-ldikpK-38" value="" style="shape=component;jettyWidth=8;jettyHeight=4;" vertex="1" parent="xx_vpH62JcAp3-ldikpK-37">
          <mxGeometry x="1" width="20" height="20" relative="1" as="geometry">
            <mxPoint x="-24" y="4" as="offset" />
          </mxGeometry>
        </mxCell>
        <mxCell id="xx_vpH62JcAp3-ldikpK-39" value="logs info" style="rounded=0;orthogonalLoop=1;jettySize=auto;html=1;endArrow=halfCircle;endFill=0;endSize=6;strokeWidth=1;sketch=0;" edge="1" parent="1" source="xx_vpH62JcAp3-ldikpK-37">
          <mxGeometry x="0.9509" y="29" relative="1" as="geometry">
            <mxPoint x="790" y="615" as="sourcePoint" />
            <mxPoint x="810" y="370" as="targetPoint" />
            <mxPoint as="offset" />
          </mxGeometry>
        </mxCell>
        <mxCell id="xx_vpH62JcAp3-ldikpK-40" value="&lt;p style=&quot;margin:0px;margin-top:6px;text-align:center;&quot;&gt;&amp;lt;&amp;lt;component&amp;gt;&amp;gt;&lt;/p&gt;&lt;p style=&quot;margin:0px;margin-top:6px;text-align:center;&quot;&gt;Change Printer Config&lt;/p&gt;" style="align=left;overflow=fill;html=1;dropTarget=0;whiteSpace=wrap;fontStyle=1" vertex="1" parent="1">
          <mxGeometry x="245" y="500" width="150" height="50" as="geometry" />
        </mxCell>
        <mxCell id="xx_vpH62JcAp3-ldikpK-41" value="" style="shape=component;jettyWidth=8;jettyHeight=4;" vertex="1" parent="xx_vpH62JcAp3-ldikpK-40">
          <mxGeometry x="1" width="20" height="20" relative="1" as="geometry">
            <mxPoint x="-24" y="4" as="offset" />
          </mxGeometry>
        </mxCell>
        <mxCell id="xx_vpH62JcAp3-ldikpK-42" value="" style="rounded=0;orthogonalLoop=1;jettySize=auto;html=1;endArrow=halfCircle;endFill=0;endSize=6;strokeWidth=1;sketch=0;" edge="1" parent="1" source="xx_vpH62JcAp3-ldikpK-40">
          <mxGeometry relative="1" as="geometry">
            <mxPoint x="435" y="740" as="sourcePoint" />
            <mxPoint x="430" y="525" as="targetPoint" />
          </mxGeometry>
        </mxCell>
        <mxCell id="xx_vpH62JcAp3-ldikpK-43" value="" style="ellipse;whiteSpace=wrap;html=1;align=center;aspect=fixed;fillColor=none;strokeColor=none;resizable=0;perimeter=centerPerimeter;rotatable=0;allowArrows=0;points=[];outlineConnect=1;" vertex="1" parent="1">
          <mxGeometry x="1085" y="530" width="10" height="10" as="geometry" />
        </mxCell>
        <mxCell id="xx_vpH62JcAp3-ldikpK-44" value="" style="ellipse;whiteSpace=wrap;html=1;align=center;aspect=fixed;fillColor=none;strokeColor=none;resizable=0;perimeter=centerPerimeter;rotatable=0;allowArrows=0;points=[];outlineConnect=1;" vertex="1" parent="1">
          <mxGeometry x="1085" y="530" width="10" height="10" as="geometry" />
        </mxCell>
        <mxCell id="xx_vpH62JcAp3-ldikpK-45" value="Printer API" style="rounded=0;orthogonalLoop=1;jettySize=auto;html=1;endArrow=oval;endFill=0;sketch=0;sourcePerimeterSpacing=0;targetPerimeterSpacing=0;endSize=10;exitX=0.5;exitY=1;exitDx=0;exitDy=0;" edge="1" parent="1" source="xx_vpH62JcAp3-ldikpK-16">
          <mxGeometry x="1" y="-20" relative="1" as="geometry">
            <mxPoint x="940" y="570" as="sourcePoint" />
            <mxPoint x="810" y="580" as="targetPoint" />
            <mxPoint as="offset" />
            <Array as="points">
              <mxPoint x="1275" y="580" />
            </Array>
          </mxGeometry>
        </mxCell>
        <mxCell id="xx_vpH62JcAp3-ldikpK-46" value="" style="rounded=0;orthogonalLoop=1;jettySize=auto;html=1;endArrow=oval;endFill=0;sketch=0;sourcePerimeterSpacing=0;targetPerimeterSpacing=0;endSize=10;" edge="1" parent="1" source="xx_vpH62JcAp3-ldikpK-35">
          <mxGeometry relative="1" as="geometry">
            <mxPoint x="650" y="495" as="sourcePoint" />
            <mxPoint x="160" y="435" as="targetPoint" />
          </mxGeometry>
        </mxCell>
        <mxCell id="xx_vpH62JcAp3-ldikpK-47" value="" style="ellipse;whiteSpace=wrap;html=1;align=center;aspect=fixed;fillColor=none;strokeColor=none;resizable=0;perimeter=centerPerimeter;rotatable=0;allowArrows=0;points=[];outlineConnect=1;" vertex="1" parent="1">
          <mxGeometry x="530" y="565" width="10" height="10" as="geometry" />
        </mxCell>
        <mxCell id="xx_vpH62JcAp3-ldikpK-48" value="Use" style="endArrow=open;endSize=12;dashed=1;html=1;rounded=0;" edge="1" parent="1">
          <mxGeometry width="160" relative="1" as="geometry">
            <mxPoint x="430" y="520" as="sourcePoint" />
            <mxPoint x="810" y="580" as="targetPoint" />
          </mxGeometry>
        </mxCell>
        <mxCell id="xx_vpH62JcAp3-ldikpK-49" value="Use" style="endArrow=open;endSize=12;dashed=1;html=1;rounded=0;" edge="1" parent="1">
          <mxGeometry width="160" relative="1" as="geometry">
            <mxPoint x="430" y="600" as="sourcePoint" />
            <mxPoint x="810" y="580" as="targetPoint" />
          </mxGeometry>
        </mxCell>
        <mxCell id="xx_vpH62JcAp3-ldikpK-50" value="Use" style="endArrow=open;endSize=12;dashed=1;html=1;rounded=0;" edge="1" parent="1">
          <mxGeometry width="160" relative="1" as="geometry">
            <mxPoint x="430" y="680" as="sourcePoint" />
            <mxPoint x="810" y="580" as="targetPoint" />
          </mxGeometry>
        </mxCell>
        <mxCell id="xx_vpH62JcAp3-ldikpK-51" value="Use" style="endArrow=open;endSize=12;dashed=1;html=1;rounded=0;" edge="1" parent="1">
          <mxGeometry width="160" relative="1" as="geometry">
            <mxPoint x="430" y="440" as="sourcePoint" />
            <mxPoint x="810" y="580" as="targetPoint" />
          </mxGeometry>
        </mxCell>
        <mxCell id="xx_vpH62JcAp3-ldikpK-52" value="" style="rounded=0;orthogonalLoop=1;jettySize=auto;html=1;endArrow=oval;endFill=0;sketch=0;sourcePerimeterSpacing=0;targetPerimeterSpacing=0;endSize=10;" edge="1" parent="1" source="xx_vpH62JcAp3-ldikpK-37">
          <mxGeometry relative="1" as="geometry">
            <mxPoint x="650" y="485" as="sourcePoint" />
            <mxPoint x="170" y="310" as="targetPoint" />
          </mxGeometry>
        </mxCell>
        <mxCell id="xx_vpH62JcAp3-ldikpK-53" value="" style="rounded=0;orthogonalLoop=1;jettySize=auto;html=1;endArrow=oval;endFill=0;sketch=0;sourcePerimeterSpacing=0;targetPerimeterSpacing=0;endSize=10;" edge="1" parent="1" source="xx_vpH62JcAp3-ldikpK-40">
          <mxGeometry relative="1" as="geometry">
            <mxPoint x="650" y="495" as="sourcePoint" />
            <mxPoint x="160" y="525" as="targetPoint" />
          </mxGeometry>
        </mxCell>
        <mxCell id="xx_vpH62JcAp3-ldikpK-54" value="" style="rounded=0;orthogonalLoop=1;jettySize=auto;html=1;endArrow=oval;endFill=0;sketch=0;sourcePerimeterSpacing=0;targetPerimeterSpacing=0;endSize=10;" edge="1" parent="1" source="xx_vpH62JcAp3-ldikpK-32">
          <mxGeometry relative="1" as="geometry">
            <mxPoint x="650" y="495" as="sourcePoint" />
            <mxPoint x="160" y="605" as="targetPoint" />
          </mxGeometry>
        </mxCell>
        <mxCell id="xx_vpH62JcAp3-ldikpK-55" value="" style="rounded=0;orthogonalLoop=1;jettySize=auto;html=1;endArrow=oval;endFill=0;sketch=0;sourcePerimeterSpacing=0;targetPerimeterSpacing=0;endSize=10;" edge="1" parent="1" source="xx_vpH62JcAp3-ldikpK-10">
          <mxGeometry relative="1" as="geometry">
            <mxPoint x="650" y="495" as="sourcePoint" />
            <mxPoint x="160" y="685" as="targetPoint" />
          </mxGeometry>
        </mxCell>
        <mxCell id="xx_vpH62JcAp3-ldikpK-56" value="&lt;p style=&quot;margin:0px;margin-top:6px;text-align:center;&quot;&gt;&amp;lt;&amp;lt;component&amp;gt;&amp;gt;&lt;/p&gt;&lt;p style=&quot;margin:0px;margin-top:6px;text-align:center;&quot;&gt;Update Driver Printer&lt;/p&gt;" style="align=left;overflow=fill;html=1;dropTarget=0;whiteSpace=wrap;fontStyle=1" vertex="1" parent="1">
          <mxGeometry x="245" y="340" width="160" height="50" as="geometry" />
        </mxCell>
        <mxCell id="xx_vpH62JcAp3-ldikpK-57" value="" style="shape=component;jettyWidth=8;jettyHeight=4;" vertex="1" parent="xx_vpH62JcAp3-ldikpK-56">
          <mxGeometry x="1" width="20" height="20" relative="1" as="geometry">
            <mxPoint x="-24" y="4" as="offset" />
          </mxGeometry>
        </mxCell>
        <mxCell id="xx_vpH62JcAp3-ldikpK-58" value="" style="rounded=0;orthogonalLoop=1;jettySize=auto;html=1;endArrow=oval;endFill=0;sketch=0;sourcePerimeterSpacing=0;targetPerimeterSpacing=0;endSize=10;" edge="1" parent="1" source="xx_vpH62JcAp3-ldikpK-56">
          <mxGeometry relative="1" as="geometry">
            <mxPoint x="650" y="425" as="sourcePoint" />
            <mxPoint x="170" y="365" as="targetPoint" />
          </mxGeometry>
        </mxCell>
        <mxCell id="xx_vpH62JcAp3-ldikpK-59" value="" style="rounded=0;orthogonalLoop=1;jettySize=auto;html=1;endArrow=halfCircle;endFill=0;endSize=6;strokeWidth=1;sketch=0;" edge="1" parent="1" source="xx_vpH62JcAp3-ldikpK-35">
          <mxGeometry relative="1" as="geometry">
            <mxPoint x="435" y="740" as="sourcePoint" />
            <mxPoint x="430" y="440" as="targetPoint" />
          </mxGeometry>
        </mxCell>
        <mxCell id="xx_vpH62JcAp3-ldikpK-60" value="" style="rounded=0;orthogonalLoop=1;jettySize=auto;html=1;endArrow=halfCircle;endFill=0;endSize=6;strokeWidth=1;sketch=0;" edge="1" parent="1" source="xx_vpH62JcAp3-ldikpK-56">
          <mxGeometry relative="1" as="geometry">
            <mxPoint x="435" y="740" as="sourcePoint" />
            <mxPoint x="440" y="365" as="targetPoint" />
          </mxGeometry>
        </mxCell>
        <mxCell id="xx_vpH62JcAp3-ldikpK-61" value="Use" style="endArrow=open;endSize=12;dashed=1;html=1;rounded=0;" edge="1" parent="1">
          <mxGeometry width="160" relative="1" as="geometry">
            <mxPoint x="440" y="360" as="sourcePoint" />
            <mxPoint x="810" y="580" as="targetPoint" />
          </mxGeometry>
        </mxCell>
        <mxCell id="xx_vpH62JcAp3-ldikpK-62" value="Use" style="endArrow=open;endSize=12;dashed=1;html=1;rounded=0;" edge="1" parent="1">
          <mxGeometry width="160" relative="1" as="geometry">
            <mxPoint x="110" y="450" as="sourcePoint" />
            <mxPoint x="170" y="310" as="targetPoint" />
          </mxGeometry>
        </mxCell>
        <mxCell id="xx_vpH62JcAp3-ldikpK-63" value="Use" style="endArrow=open;endSize=12;dashed=1;html=1;rounded=0;" edge="1" parent="1">
          <mxGeometry width="160" relative="1" as="geometry">
            <mxPoint x="110" y="450" as="sourcePoint" />
            <mxPoint x="170" y="360" as="targetPoint" />
          </mxGeometry>
        </mxCell>
        <mxCell id="xx_vpH62JcAp3-ldikpK-64" value="Use" style="endArrow=open;endSize=12;dashed=1;html=1;rounded=0;" edge="1" parent="1">
          <mxGeometry width="160" relative="1" as="geometry">
            <mxPoint x="110" y="450" as="sourcePoint" />
            <mxPoint x="160" y="430" as="targetPoint" />
          </mxGeometry>
        </mxCell>
        <mxCell id="xx_vpH62JcAp3-ldikpK-65" value="Use" style="endArrow=open;endSize=12;dashed=1;html=1;rounded=0;" edge="1" parent="1">
          <mxGeometry width="160" relative="1" as="geometry">
            <mxPoint x="110" y="450" as="sourcePoint" />
            <mxPoint x="160" y="530" as="targetPoint" />
          </mxGeometry>
        </mxCell>
        <mxCell id="xx_vpH62JcAp3-ldikpK-66" value="Use" style="endArrow=open;endSize=12;dashed=1;html=1;rounded=0;" edge="1" parent="1">
          <mxGeometry width="160" relative="1" as="geometry">
            <mxPoint x="110" y="450" as="sourcePoint" />
            <mxPoint x="160" y="600" as="targetPoint" />
          </mxGeometry>
        </mxCell>
        <mxCell id="xx_vpH62JcAp3-ldikpK-67" value="Use" style="endArrow=open;endSize=12;dashed=1;html=1;rounded=0;" edge="1" parent="1">
          <mxGeometry width="160" relative="1" as="geometry">
            <mxPoint x="110" y="450" as="sourcePoint" />
            <mxPoint x="160" y="690" as="targetPoint" />
          </mxGeometry>
        </mxCell>
        <mxCell id="xx_vpH62JcAp3-ldikpK-68" value="" style="rounded=0;orthogonalLoop=1;jettySize=auto;html=1;endArrow=oval;endFill=0;sketch=0;sourcePerimeterSpacing=0;targetPerimeterSpacing=0;endSize=10;exitX=0;exitY=0.5;exitDx=0;exitDy=0;" edge="1" parent="1" source="xx_vpH62JcAp3-ldikpK-7">
          <mxGeometry relative="1" as="geometry">
            <mxPoint x="-120" y="495" as="sourcePoint" />
            <mxPoint x="-480" y="450" as="targetPoint" />
          </mxGeometry>
        </mxCell>
        <mxCell id="xx_vpH62JcAp3-ldikpK-69" value="" style="ellipse;whiteSpace=wrap;html=1;align=center;aspect=fixed;fillColor=none;strokeColor=none;resizable=0;perimeter=centerPerimeter;rotatable=0;allowArrows=0;points=[];outlineConnect=1;" vertex="1" parent="1">
          <mxGeometry x="-105" y="490" width="10" height="10" as="geometry" />
        </mxCell>
      </root>
    </mxGraphModel>
  </diagram>
</mxfile>
